<mxfile host="app.diagrams.net" agent="Mozilla/5.0 (Windows NT 10.0; Win64; x64) AppleWebKit/537.36 (KHTML, like Gecko) Chrome/141.0.0.0 Safari/537.36 Edg/141.0.0.0" version="28.2.8">
  <diagram name="Page-1" id="BAyl60E5w9wq4onZE_rB">
    <mxGraphModel dx="2066" dy="1192" grid="1" gridSize="10" guides="1" tooltips="1" connect="1" arrows="1" fold="1" page="1" pageScale="1" pageWidth="850" pageHeight="1100" math="0" shadow="0">
      <root>
        <mxCell id="0" />
        <mxCell id="1" parent="0" />
        <mxCell id="uSip1Vt7Gxsu-RnKD_F3-1" value="Azure OpenAI" style="image;aspect=fixed;html=1;points=[];align=center;fontSize=12;image=img/lib/azure2/ai_machine_learning/Azure_OpenAI.svg;" parent="1" vertex="1">
          <mxGeometry x="720" y="320" width="68" height="68" as="geometry" />
        </mxCell>
        <mxCell id="uSip1Vt7Gxsu-RnKD_F3-8" value="" style="edgeStyle=orthogonalEdgeStyle;rounded=0;orthogonalLoop=1;jettySize=auto;html=1;" parent="1" target="uSip1Vt7Gxsu-RnKD_F3-7" edge="1">
          <mxGeometry relative="1" as="geometry">
            <mxPoint x="460" y="354" as="sourcePoint" />
          </mxGeometry>
        </mxCell>
        <mxCell id="uSip1Vt7Gxsu-RnKD_F3-5" value="" style="edgeStyle=orthogonalEdgeStyle;rounded=0;orthogonalLoop=1;jettySize=auto;html=1;" parent="1" source="uSip1Vt7Gxsu-RnKD_F3-3" target="uSip1Vt7Gxsu-RnKD_F3-4" edge="1">
          <mxGeometry relative="1" as="geometry" />
        </mxCell>
        <mxCell id="uSip1Vt7Gxsu-RnKD_F3-3" value="Azure VM" style="verticalLabelPosition=bottom;html=1;verticalAlign=top;align=center;strokeColor=none;fillColor=#00BEF2;shape=mxgraph.azure.virtual_machine;" parent="1" vertex="1">
          <mxGeometry x="100" y="334" width="50" height="40" as="geometry" />
        </mxCell>
        <mxCell id="uSip1Vt7Gxsu-RnKD_F3-6" value="" style="edgeStyle=orthogonalEdgeStyle;rounded=0;orthogonalLoop=1;jettySize=auto;html=1;" parent="1" source="uSip1Vt7Gxsu-RnKD_F3-4" edge="1">
          <mxGeometry relative="1" as="geometry">
            <mxPoint x="410" y="354" as="targetPoint" />
          </mxGeometry>
        </mxCell>
        <mxCell id="uSip1Vt7Gxsu-RnKD_F3-4" value="Model end point exposed by Databricks" style="whiteSpace=wrap;html=1;verticalAlign=top;fillColor=#b1ddf0;strokeColor=#10739e;" parent="1" vertex="1">
          <mxGeometry x="195" y="324" width="120" height="60" as="geometry" />
        </mxCell>
        <mxCell id="uSip1Vt7Gxsu-RnKD_F3-9" value="" style="edgeStyle=orthogonalEdgeStyle;rounded=0;orthogonalLoop=1;jettySize=auto;html=1;" parent="1" source="uSip1Vt7Gxsu-RnKD_F3-7" target="uSip1Vt7Gxsu-RnKD_F3-1" edge="1">
          <mxGeometry relative="1" as="geometry" />
        </mxCell>
        <mxCell id="uSip1Vt7Gxsu-RnKD_F3-7" value="Call Azure OpenAI LLM" style="whiteSpace=wrap;html=1;verticalAlign=top;labelBackgroundColor=default;sketch=0;fillColor=#b1ddf0;strokeColor=#10739e;" parent="1" vertex="1">
          <mxGeometry x="505" y="324" width="120" height="60" as="geometry" />
        </mxCell>
        <mxCell id="uSip1Vt7Gxsu-RnKD_F3-10" value="Databricks" style="image;aspect=fixed;html=1;points=[];align=center;fontSize=12;image=img/lib/azure2/analytics/Azure_Databricks.svg;" parent="1" vertex="1">
          <mxGeometry x="404" y="316" width="62.8" height="68" as="geometry" />
        </mxCell>
        <mxCell id="uSip1Vt7Gxsu-RnKD_F3-20" style="edgeStyle=orthogonalEdgeStyle;rounded=0;orthogonalLoop=1;jettySize=auto;html=1;" parent="1" source="uSip1Vt7Gxsu-RnKD_F3-13" edge="1">
          <mxGeometry relative="1" as="geometry">
            <mxPoint x="435" y="420" as="targetPoint" />
          </mxGeometry>
        </mxCell>
        <mxCell id="uSip1Vt7Gxsu-RnKD_F3-13" value="Data Lake" style="image;sketch=0;aspect=fixed;html=1;points=[];align=center;fontSize=12;image=img/lib/mscae/Data_Lake.svg;" parent="1" vertex="1">
          <mxGeometry x="416" y="470" width="38" height="50" as="geometry" />
        </mxCell>
        <mxCell id="uSip1Vt7Gxsu-RnKD_F3-19" style="edgeStyle=orthogonalEdgeStyle;rounded=0;orthogonalLoop=1;jettySize=auto;html=1;" parent="1" source="uSip1Vt7Gxsu-RnKD_F3-15" target="uSip1Vt7Gxsu-RnKD_F3-13" edge="1">
          <mxGeometry relative="1" as="geometry" />
        </mxCell>
        <mxCell id="uSip1Vt7Gxsu-RnKD_F3-18" style="edgeStyle=orthogonalEdgeStyle;rounded=0;orthogonalLoop=1;jettySize=auto;html=1;" parent="1" source="uSip1Vt7Gxsu-RnKD_F3-17" edge="1">
          <mxGeometry relative="1" as="geometry">
            <mxPoint x="440" y="530" as="targetPoint" />
          </mxGeometry>
        </mxCell>
        <mxCell id="uSip1Vt7Gxsu-RnKD_F3-17" value="" style="verticalLabelPosition=bottom;html=1;verticalAlign=top;align=center;strokeColor=none;fillColor=#00BEF2;shape=mxgraph.azure.sql_database_sql_azure;" parent="1" vertex="1">
          <mxGeometry x="577.5" y="580" width="47.5" height="50" as="geometry" />
        </mxCell>
        <mxCell id="uSip1Vt7Gxsu-RnKD_F3-21" value="" style="group" parent="1" vertex="1" connectable="0">
          <mxGeometry x="170" y="590" width="130" height="57.5" as="geometry" />
        </mxCell>
        <mxCell id="uSip1Vt7Gxsu-RnKD_F3-14" value="" style="image;sketch=0;aspect=fixed;html=1;points=[];align=center;fontSize=12;image=img/lib/mscae/SAP_HANA_on_Azure.svg;" parent="uSip1Vt7Gxsu-RnKD_F3-21" vertex="1">
          <mxGeometry x="40" y="32.5" width="50" height="25" as="geometry" />
        </mxCell>
        <mxCell id="uSip1Vt7Gxsu-RnKD_F3-15" value="SAP S/4HANA" style="text;html=1;align=left;verticalAlign=middle;resizable=0;points=[];autosize=1;strokeColor=none;fillColor=none;fontSize=16;fontColor=#1A2733;fontFamily=Helvetica;fontStyle=1" parent="uSip1Vt7Gxsu-RnKD_F3-21" vertex="1">
          <mxGeometry width="130" height="30" as="geometry" />
        </mxCell>
      </root>
    </mxGraphModel>
  </diagram>
</mxfile>
